HIERARCHY
ROOT Hips
{
	OFFSET 0.00000 0.00000 0.00000
	CHANNELS 6 Xposition Yposition Zposition Zrotation Yrotation Xrotation 
	JOINT LHipJoint
	{
		OFFSET 0 0 0
		CHANNELS 3 Zrotation Yrotation Xrotation
		JOINT LeftUpLeg
		{
			OFFSET 1.17584 -1.63585 1.00361
			CHANNELS 3 Zrotation Yrotation Xrotation
			JOINT LeftLeg
			{
				OFFSET 2.23889 -6.15131 0.00000
				CHANNELS 3 Zrotation Yrotation Xrotation
				JOINT LeftFoot
				{
					OFFSET 2.65161 -7.28525 0.00000
					CHANNELS 3 Zrotation Yrotation Xrotation
					JOINT LeftToeBase
					{
						OFFSET 0.24898 -0.68407 1.57235
						CHANNELS 3 Zrotation Yrotation Xrotation
						End Site
						{
							OFFSET 0.00000 -0.00000 0.85838
						}
					}
				}
			}
		}
	}
	JOINT RHipJoint
	{
		OFFSET 0 0 0
		CHANNELS 3 Zrotation Yrotation Xrotation
		JOINT RightUpLeg
		{
			OFFSET -1.15592 -1.63585 1.00361
			CHANNELS 3 Zrotation Yrotation Xrotation
			JOINT RightLeg
			{
				OFFSET -2.34071 -6.43104 0.00000
				CHANNELS 3 Zrotation Yrotation Xrotation
				JOINT RightFoot
				{
					OFFSET -2.59113 -7.11908 0.00000
					CHANNELS 3 Zrotation Yrotation Xrotation
					JOINT RightToeBase
					{
						OFFSET -0.17867 -0.49089 1.70981
						CHANNELS 3 Zrotation Yrotation Xrotation
						End Site
						{
							OFFSET -0.00000 -0.00000 0.89861
						}
					}
				}
			}
		}
	}
	JOINT LowerBack
	{
		OFFSET 0 0 0
		CHANNELS 3 Zrotation Yrotation Xrotation
		JOINT Spine
		{
			OFFSET -0.02255 1.90764 -0.16605
			CHANNELS 3 Zrotation Yrotation Xrotation
			JOINT Spine1
			{
				OFFSET -0.00365 1.92150 -0.04898
				CHANNELS 3 Zrotation Yrotation Xrotation
				JOINT Neck
				{
					OFFSET 0 0 0
					CHANNELS 3 Zrotation Yrotation Xrotation
					JOINT Neck1
					{
						OFFSET 0.00372 1.59170 0.08694
						CHANNELS 3 Zrotation Yrotation Xrotation
						JOINT Head
						{
							OFFSET 0.12558 1.58643 -0.08078
							CHANNELS 3 Zrotation Yrotation Xrotation
							End Site
							{
								OFFSET 0.04211 1.60835 -0.03803
							}
						}
					}
				}
				JOINT LeftShoulder
				{
					OFFSET 0 0 0
					CHANNELS 3 Zrotation Yrotation Xrotation
					JOINT LeftArm
					{
						OFFSET 3.69324 0.96316 0.19077
						CHANNELS 3 Zrotation Yrotation Xrotation
						JOINT LeftForeArm
						{
							OFFSET 4.87796 -0.00000 -0.00000
							CHANNELS 3 Zrotation Yrotation Xrotation
							JOINT LeftHand
							{
								OFFSET 3.23169 -0.00000 0.00000
								CHANNELS 3 Zrotation Yrotation Xrotation
								JOINT LeftFingerBase
								{
									OFFSET 0 0 0
									CHANNELS 3 Zrotation Yrotation Xrotation
									JOINT LeftHandIndex1
									{
										OFFSET 0.73132 -0.00000 0.00000
										CHANNELS 3 Zrotation Yrotation Xrotation
										End Site
										{
											OFFSET 0.58961 -0.00000 0.00000
										}
									}
								}
								JOINT LThumb
								{
									OFFSET 0 0 0
									CHANNELS 3 Zrotation Yrotation Xrotation
									End Site
									{
										OFFSET 0.59861 -0.00000 0.59861
									}
								}
							}
						}
					}
				}
				JOINT RightShoulder
				{
					OFFSET 0 0 0
					CHANNELS 3 Zrotation Yrotation Xrotation
					JOINT RightArm
					{
						OFFSET -3.66103 0.75145 0.08281
						CHANNELS 3 Zrotation Yrotation Xrotation
						JOINT RightForeArm
						{
							OFFSET -4.91430 -0.00000 0.00000
							CHANNELS 3 Zrotation Yrotation Xrotation
							JOINT RightHand
							{
								OFFSET -3.29093 -0.00000 0.00000
								CHANNELS 3 Zrotation Yrotation Xrotation
								JOINT RightFingerBase
								{
									OFFSET 0 0 0
									CHANNELS 3 Zrotation Yrotation Xrotation
									JOINT RightHandIndex1
									{
										OFFSET -0.54512 -0.00000 0.00000
										CHANNELS 3 Zrotation Yrotation Xrotation
										End Site
										{
											OFFSET -0.43949 -0.00000 0.00000
										}
									}
								}
								JOINT RThumb
								{
									OFFSET 0 0 0
									CHANNELS 3 Zrotation Yrotation Xrotation
									End Site
									{
										OFFSET -0.44620 -0.00000 0.44620
									}
								}
							}
						}
					}
				}
			}
		}
	}
}
MOTION
Frames: 13
Frame Time: 0.028169
0.00 0.00 0.00 220.3640 -97.1603 -190.2150 0.0000 0.0000 0.0000 -29.8534 -7.5414 -51.6446 8.2497 16.2998 53.4570 1.3225 -9.7835 -20.6832 0.5305 -4.6674 -12.9623 0.0000 0.0000 0.0000 -34.8128 10.2222 -116.7799 -7.2947 -15.5751 49.9804 0.3484 -10.4941 -5.4020 -0.9581 6.2329 -17.4617 -2.5722 -3.2541 17.4844 1.9257 -5.1632 10.0850 4.2724 -2.9837 1.4497 -3.6765 4.7435 7.8632 -3.0941 5.8615 5.3730 -0.4608 2.7791 0.3603 -0.0000 -0.0000 0.0000 -27.0985 -72.5056 -7.6326 15.3631 -24.6495 -3.3759 -0.0000 -0.0000 18.5255 53.0324 -30.8082 -34.2340 -7.1250 0.0000 -0.0000 11.7141 -13.9712 -14.4590 -0.0000 -0.0000 0.0000 28.1408 55.4672 -2.3588 -11.8597 19.5938 -2.0550 0.0000 0.0000 3.9997 -25.8728 -18.6924 8.8349 7.1250 -0.0000 -0.0000 2.3112 -50.5731 -0.3176
0.00 0.00 0.00 79.1988 -98.2881 -27.0852 0.0000 0.0000 0.0000 -12.5212 -12.8611 -76.6756 9.6272 17.1948 58.2350 1.9183 -5.9870 -24.9701 0.6066 -4.9852 -13.8664 0.0000 0.0000 0.0000 -6.0469 26.8851 -90.9258 -11.0490 -17.9590 62.9407 -0.2779 -5.7327 -13.7057 -1.1620 6.8433 -19.2520 -1.1183 -1.5118 22.0298 -1.5981 -2.8311 8.7752 -0.3900 -1.6050 -2.7573 -1.2516 6.9115 3.1979 -6.0897 8.9500 -4.4836 -1.9175 4.6600 -1.7160 0.0000 0.0000 0.0000 -26.0267 -46.2401 -15.9468 17.1296 -27.0283 -4.1461 -0.0000 -0.0000 18.8678 57.5253 -30.4523 -38.5312 -7.1250 0.0000 -0.0000 14.1546 -16.3873 -18.0356 0.0000 0.0000 0.0000 10.4116 74.1425 -20.0540 -23.3583 34.4783 -7.3401 0.0000 -0.0000 -6.0533 -33.1881 -15.3242 9.8073 7.1250 -0.0000 -0.0000 -5.4139 -48.0354 0.4066
0.00 0.00 0.00 87.7538 -103.2160 -27.6560 0.0000 0.0000 0.0000 -5.5046 -11.9370 -83.0497 10.2082 17.5253 60.1821 2.6666 -6.3942 -29.6172 0.4008 -4.0646 -11.2585 0.0000 0.0000 0.0000 17.5599 17.9122 -58.1568 -6.7597 -15.1262 47.9597 -0.5125 -1.1544 -13.9899 -2.2205 9.3110 -26.7731 -1.2334 -0.8389 23.1777 -3.4288 -2.1209 7.5439 -2.4188 -1.2098 -4.7336 -0.8029 7.6735 0.7564 -5.4342 10.0057 -8.6521 -1.8433 5.2281 -2.6327 -0.0000 -0.0000 0.0000 -32.3150 -31.8610 -14.1800 16.2531 -25.8626 -3.7557 -0.0000 -0.0000 17.3758 55.7900 -29.2563 -35.7107 -7.1250 0.0000 -0.0000 13.6550 -13.8193 -16.9430 -0.0000 -0.0000 0.0000 6.3341 75.7480 -22.7157 -33.7465 43.8960 -13.9370 0.0000 -0.0000 -7.6416 -37.8647 -13.3806 10.1999 7.1250 -0.0000 -0.0000 -10.0199 -46.5000 0.3746
0.00 0.00 0.00 99.0887 -106.2060 -29.5461 0.0000 0.0000 0.0000 1.3462 -10.1491 -93.0279 11.5597 18.1982 64.5861 3.2024 -8.7268 -32.4002 0.4144 -4.1321 -11.4486 0.0000 0.0000 0.0000 28.5073 0.6509 -33.2341 -2.7734 -10.3189 30.0158 -0.0445 3.5677 -4.2067 -1.7542 8.3341 -23.7335 -2.0265 0.2747 20.1936 -5.7209 -0.8765 4.8117 -4.7965 -0.5660 -6.1410 -0.6811 7.1829 -2.8333 -2.7796 9.5677 -9.6121 -0.8830 4.8991 -2.4464 0.0000 0.0000 0.0000 -36.7315 -18.7050 -9.7417 14.5398 -23.5011 -3.0400 -0.0000 -0.0000 17.7337 53.5496 -29.0876 -33.3521 -7.1250 0.0000 -0.0000 12.5373 -12.2409 -15.2371 0.0000 0.0000 0.0000 22.8088 73.6483 -6.6190 -46.4310 51.4506 -23.3526 0.0000 -0.0000 -8.4248 -42.2532 -12.3352 10.9829 7.1250 -0.0000 -0.0000 -14.2322 -45.9391 0.3367
0.00 0.00 0.00 102.5040 -110.7640 -22.2870 0.0000 0.0000 0.0000 10.6548 -7.5005 -101.6088 11.5406 18.1896 64.5251 3.5402 -3.4636 -34.8688 0.6974 -5.3383 -14.8760 0.0000 0.0000 0.0000 28.7506 -10.9388 -8.6570 -0.5316 -4.6720 12.9755 -0.0172 -6.6411 5.0748 -2.1633 9.1982 -26.4173 -4.5061 3.0407 15.6230 -8.1219 2.2591 1.2938 -6.7157 0.9905 -7.2527 -2.7856 5.5028 -6.3753 -2.1994 7.3931 -11.5139 -0.2642 3.8606 -2.5941 0.0000 0.0000 0.0000 -39.8974 -9.3031 -10.0335 13.0101 -21.3020 -2.4569 -0.0000 -0.0000 19.5503 50.0724 -28.5681 -29.7421 -7.1250 0.0000 -0.0000 10.8549 -9.6940 -12.7389 0.0000 0.0000 0.0000 32.5783 70.3652 6.3892 -54.5611 54.6772 -29.8576 0.0000 -0.0000 -10.7170 -45.6071 -12.8524 12.8006 7.1250 -0.0000 -0.0000 -17.7002 -47.2349 1.0064
0.00 0.00 0.00 121.9290 -117.7660 -27.1714 0.0000 0.0000 0.0000 35.3614 -7.7967 -97.6977 6.5465 14.9378 47.1373 2.8299 12.2331 -37.8653 0.2577 -3.2662 -9.0208 0.0000 0.0000 0.0000 23.9474 -22.7781 22.9976 0.0000 0.0000 -0.0000 -0.7934 -15.0578 17.8293 -2.0175 8.9024 -25.4904 -4.9507 4.7314 16.5171 -8.6949 4.2157 0.0218 -7.7584 1.9440 -8.9772 -5.0961 2.7341 -11.3204 -7.3725 3.1162 -17.0453 -1.5732 1.9813 -3.6371 -0.0000 -0.0000 0.0000 -45.8324 0.9274 -14.3780 11.7083 -19.3657 -2.0045 -0.0000 -0.0000 17.0414 49.0312 -25.9727 -26.7641 -7.1250 0.0000 -0.0000 11.0363 -6.0322 -12.3556 -0.0000 -0.0000 0.0000 38.1406 71.4328 15.1958 -51.1449 53.4469 -27.0912 0.0000 -0.0000 -4.4125 -46.7796 -12.5418 13.0114 7.1250 -0.0000 -0.0000 -18.8281 -47.0610 0.9915
0.00 0.00 0.00 137.2190 -119.2200 -33.4458 0.0000 0.0000 0.0000 57.1285 -10.8248 -88.4335 2.3828 9.6217 27.7602 2.1501 25.3035 -45.4264 0.0005 -0.1475 -0.4054 0.0000 0.0000 0.0000 23.3756 -26.4898 23.1593 -0.6796 -5.2711 14.6834 -1.0837 -4.1834 18.7261 -3.3936 11.3065 -33.3208 -4.5615 4.6538 18.0001 -8.9615 4.0822 1.0551 -8.3170 1.8718 -8.6228 -4.3174 1.4321 -12.0625 -6.0190 1.3860 -18.4788 -1.2792 1.0414 -4.0607 -0.0000 0.0000 0.0000 -46.0957 0.8167 -10.8263 11.1036 -18.4468 -1.8086 -0.0000 -0.0000 16.6874 48.4183 -26.9330 -27.0441 -7.1250 0.0000 -0.0000 10.4328 -6.9054 -11.7980 -0.0000 0.0000 0.0000 37.7390 69.4180 12.0696 -45.2609 50.8957 -22.4410 0.0000 -0.0000 -5.4643 -47.0167 -13.0318 13.6014 7.1250 -0.0000 -0.0000 -19.2050 -47.7638 1.3570
0.00 0.00 0.00 146.5300 -119.9410 -35.0788 0.0000 0.0000 0.0000 38.1807 -2.1620 -82.3547 0.0155 0.8040 2.2097 0.0491 15.5133 -22.5063 0.0301 -1.1206 -3.0807 0.0000 0.0000 0.0000 24.0736 -26.0139 19.3812 -2.3482 -9.5565 27.5522 -0.7530 0.0031 16.4041 -4.2140 12.4398 -37.3061 -4.2301 4.5967 17.7394 -9.3778 4.1317 1.6584 -8.9081 1.9193 -7.7499 -4.2074 0.8160 -12.1300 -3.8906 0.9075 -17.8247 -0.5698 0.7282 -3.8089 -0.0000 -0.0000 0.0000 -45.8970 -0.9898 -8.4544 11.1274 -18.4832 -1.8161 -0.0000 -0.0000 16.6445 46.2328 -28.6982 -26.6254 -7.1250 0.0000 -0.0000 8.7475 -7.9824 -9.9870 -0.0000 -0.0000 0.0000 36.2100 67.0142 8.1186 -40.3224 48.2597 -18.6794 0.0000 -0.0000 -5.1226 -46.5486 -12.8056 13.1681 7.1250 -0.0000 -0.0000 -18.6584 -47.3647 1.1263
0.00 0.00 0.00 157.1970 -121.0660 -33.6559 0.0000 0.0000 0.0000 38.9485 1.1943 -85.4202 0.0000 0.0000 0.0000 -0.3620 15.7317 -18.1716 2.2925 -9.4505 -27.2149 0.0000 0.0000 0.0000 23.4610 -22.6723 13.5248 -6.0791 -14.5046 45.2984 -0.4105 3.1506 13.6718 -5.0186 13.4047 -40.9030 -3.4660 4.4088 16.4484 -9.9988 4.2247 2.4271 -9.8669 2.0268 -6.0818 -3.8333 0.7346 -12.7046 -2.4657 1.2168 -14.2384 -0.1288 0.8072 -2.4390 -0.0000 0.0000 0.0000 -46.5558 -4.7164 -6.8989 11.3033 -18.7517 -1.8723 -0.0000 -0.0000 15.3969 44.6827 -29.0172 -25.6284 -7.1250 0.0000 -0.0000 7.8152 -7.6664 -8.8656 -0.0000 0.0000 0.0000 34.8329 62.7163 4.7478 -33.3595 43.6046 -13.6694 0.0000 -0.0000 -4.1429 -46.5655 -12.5167 12.8931 7.1250 -0.0000 -0.0000 -18.6016 -46.9840 0.9423
0.00 0.00 0.00 169.2790 -120.9030 -30.2256 0.0000 0.0000 0.0000 39.0535 0.5994 -90.3200 0.5603 4.7947 13.3239 -0.4243 16.7746 -19.2378 3.5888 -11.5921 -34.3040 0.0000 0.0000 0.0000 21.1801 -15.5344 5.7096 -11.8711 -18.3356 65.5797 0.2357 10.2292 9.7067 -5.8931 14.3239 -44.5511 -2.9879 3.6182 15.3563 -9.7947 3.5775 3.8841 -9.5584 1.8124 -3.9862 -3.0819 1.2485 -13.7444 -3.6442 2.1368 -7.9035 -0.5401 1.1690 -0.2105 0.0000 0.0000 0.0000 -49.3910 -9.7916 -4.2490 11.2308 -18.6412 -1.8490 -0.0000 -0.0000 13.2823 46.6998 -27.2545 -25.9177 -7.1250 0.0000 -0.0000 9.4020 -6.4905 -10.5402 0.0000 0.0000 0.0000 33.8557 55.4071 4.1316 -26.7557 37.9452 -9.3485 0.0000 -0.0000 -4.4391 -46.5576 -11.9686 12.3511 7.1250 -0.0000 -0.0000 -18.4535 -46.2516 0.5899
0.00 0.00 0.00 180.3800 -118.6610 -30.5771 0.0000 0.0000 0.0000 36.4613 -3.7754 -98.1208 3.4588 11.4031 33.6516 -0.3385 14.4557 -16.1789 6.3627 -14.7709 -46.4206 0.0000 0.0000 0.0000 19.3201 -11.8084 0.0976 -15.7300 -19.5571 77.4262 0.6826 14.4707 4.5238 -6.2466 14.6631 -45.9635 -2.5540 2.5634 16.1377 -8.6263 2.4571 5.6937 -8.2524 1.3244 -2.6641 -3.2214 1.8190 -12.5585 -3.9875 3.0566 -4.4541 -0.5722 1.5874 0.7070 0.0000 -0.0000 0.0000 -52.2810 -13.3419 -1.1245 11.4442 -18.9659 -1.9178 -0.0000 -0.0000 14.2984 46.7551 -27.7688 -26.3519 -7.1250 0.0000 -0.0000 9.2908 -7.1266 -10.5028 0.0000 -0.0000 0.0000 32.7315 49.0589 2.3030 -22.5386 33.5804 -6.8814 0.0000 -0.0000 -2.8634 -45.8195 -12.2932 12.3578 7.1250 -0.0000 -0.0000 -17.7863 -46.5394 0.6973
0.00 0.00 0.00 204.2300 -112.5820 -27.8438 0.0000 0.0000 0.0000 12.6352 -7.4285 -92.1298 8.5497 16.5090 54.5193 0.6082 -5.1016 -13.8849 9.8494 -17.3243 -58.9838 0.0000 0.0000 0.0000 14.8322 -4.2517 -15.9771 -21.3423 -19.9567 93.9275 0.1808 10.3941 -3.8630 -4.7513 13.0981 -39.7367 1.2870 0.3321 16.2710 -6.4658 0.5896 8.7788 -7.7189 0.6787 0.3503 -1.4389 4.4022 -10.4631 -4.7133 6.2659 4.6220 -0.9135 2.7612 3.4758 0.0000 -0.0000 0.0000 -55.4821 -14.9021 11.1175 16.0355 -25.5688 -3.6613 -0.0000 -0.0000 9.8518 46.9500 -27.3526 -26.1905 -7.1250 0.0000 -0.0000 9.5125 -6.7213 -10.7011 0.0000 -0.0000 0.0000 34.4930 32.7211 -1.4253 -15.9685 25.4779 -3.6324 0.0000 0.0000 2.6014 -43.7324 -15.6088 14.4355 7.1250 -0.0000 -0.0000 -16.2910 -50.3986 2.2188
0.00 0.00 0.00 222.6480 -109.4670 -5.3928 0.0000 0.0000 0.0000 -0.5870 -6.5929 -65.2495 11.0419 17.9555 62.9176 0.2800 -7.1807 -9.9813 7.2390 -15.5299 -49.7726 0.0000 0.0000 0.0000 4.1060 3.2804 -34.0730 -24.9321 -19.4065 104.5589 0.0151 7.8811 -5.1957 -2.8017 10.3670 -30.1734 4.7025 0.3420 5.1190 -3.5432 0.4896 9.7564 -6.4169 0.6196 7.5049 -0.0699 4.4702 -11.5385 -5.2388 6.9960 14.7748 -1.0320 2.8776 6.5933 -0.0000 -0.0000 0.0000 -60.7209 2.9558 22.1787 15.7525 -25.1839 -3.5400 -0.0000 -0.0000 10.7454 45.1416 -24.7049 -22.7832 -7.1250 0.0000 -0.0000 9.2005 -2.7562 -9.7566 -0.0000 -0.0000 0.0000 44.8837 9.6670 6.4109 -15.0374 24.1981 -3.2412 0.0000 0.0000 9.4670 -42.8500 -19.8133 17.4545 7.1250 -0.0000 -0.0000 -15.9697 -55.4309 4.1662
